<svg width="115" height="115" viewBox="0 0 115 115" fill="none" xmlns="http://www.w3.org/2000/svg">
<rect x="42.2896" y="2.04701" width="81" height="81" rx="28.5" transform="rotate(29.79 42.2896 2.04701)" fill="url(#paint0_linear_111_292)" stroke="white" stroke-width="3"/>
<path fill-rule="evenodd" clip-rule="evenodd" d="M77.3395 63.7756C76.7264 63.4246 76.5139 62.643 76.8649 62.0299C77.2159 61.4168 77.9975 61.2043 78.6107 61.5553L83.6791 64.457C84.2922 64.808 84.5047 65.5896 84.1538 66.2026C83.8029 66.8156 83.0212 67.0282 82.4081 66.6772L77.3395 63.7756ZM81.0774 55.3916C80.3699 55.3952 79.7934 54.8243 79.7898 54.1169C79.7862 53.4094 80.357 52.8329 81.0645 52.8293L86.9896 52.8076C87.6971 52.804 88.2736 53.3749 88.2772 54.0823C88.2807 54.7898 87.7099 55.3663 87.0024 55.3699L81.0774 55.3916ZM78.5583 46.6819C77.9488 47.0384 77.1657 46.8333 76.809 46.2237C76.4526 45.6142 76.6576 44.831 77.2672 44.4744L82.3144 41.5358C82.9239 41.1793 83.707 41.3844 84.0637 41.994C84.4201 42.6035 84.2151 43.3867 83.6055 43.7433L78.5583 46.6819Z" fill="#5ECFFF"/>
<path fill-rule="evenodd" clip-rule="evenodd" d="M45.2304 61.1841L37.2383 61.2132L37.2856 74.1862C37.2936 76.384 39.0983 78.1757 41.2963 78.1676C43.4941 78.1596 45.2858 76.3549 45.2777 74.1572L45.2304 61.1841Z" fill="#0090C7"/>
<path fill-rule="evenodd" clip-rule="evenodd" d="M45.2322 61.1851L39.8269 61.2049L39.8743 74.1779C39.8806 75.9237 41.0206 77.413 42.5906 77.9478C44.1567 77.4014 45.2859 75.9039 45.2794 74.1583L45.2321 61.1853L45.2322 61.1851Z" fill="#00AEEF"/>
<path fill-rule="evenodd" clip-rule="evenodd" d="M60.1502 48.6575L69.7248 48.6228C72.7658 48.6117 75.263 51.0907 75.2741 54.1316C75.2852 57.1725 72.8062 59.6697 69.7652 59.6808L60.1906 59.7156L60.1502 48.6575Z" fill="#00AEEF"/>
<path fill-rule="evenodd" clip-rule="evenodd" d="M60.1502 48.6574L69.7249 48.6227C70.2422 48.6208 70.7437 48.691 71.22 48.824L71.2588 59.4687C70.7834 59.6049 70.2826 59.6789 69.7653 59.6808L60.1905 59.7157L60.1502 48.6577L60.1502 48.6574Z" fill="#0090C7"/>
<path fill-rule="evenodd" clip-rule="evenodd" d="M48.9315 45.3057L48.9965 63.1488L37.2457 63.1915C32.3389 63.2094 28.3095 59.2095 28.2916 54.3025C28.2737 49.3955 32.2739 45.3663 37.1806 45.3484L48.9315 45.3057Z" fill="#0090C7"/>
<path fill-rule="evenodd" clip-rule="evenodd" d="M48.9324 45.3062L48.987 60.2834C48.5544 60.2555 48.1148 60.2409 47.6672 60.2425L39.6751 60.2716C34.7684 60.2894 30.7389 56.2895 30.721 51.3826C30.7156 49.8946 31.0802 48.4877 31.7268 47.2485C33.2345 46.0662 35.1283 45.3561 37.1812 45.3487L48.9321 45.306L48.9324 45.3062Z" fill="#00AEEF"/>
<path fill-rule="evenodd" clip-rule="evenodd" d="M68.7458 39.4772L68.8528 68.8319C68.8569 69.9733 68.283 70.9547 67.2862 71.5109C66.2896 72.0671 65.153 72.0402 64.1837 71.4373C59.0519 68.2448 53.4262 63.1324 45.2367 63.1621L45.1716 45.319C53.361 45.2891 58.9493 40.1358 64.0578 36.906C65.0226 36.2961 66.1589 36.2609 67.1596 36.8097C68.1604 37.3585 68.7414 38.3359 68.7456 39.4773L68.7458 39.4772Z" fill="#38BDF8"/>
<path fill-rule="evenodd" clip-rule="evenodd" d="M68.7457 39.4771L68.8526 68.8318C68.8528 68.8615 68.8525 68.8911 68.8516 68.9207C68.0948 69.0865 67.3102 68.951 66.6123 68.5168C61.4806 65.3241 55.8549 60.2117 47.6656 60.2415L45.2263 60.2504L45.1719 45.3187C53.3612 45.2888 58.9495 40.1355 64.0578 36.9058C65.0226 36.2959 66.1591 36.2606 67.1597 36.8095C68.1605 37.3586 68.7415 38.3358 68.7457 39.4771Z" fill="#5ECFFF"/>
<path fill-rule="evenodd" clip-rule="evenodd" d="M64.0553 36.9092C65.0199 36.2994 66.1561 36.2641 67.1566 36.8128C68.1571 37.3617 68.7381 38.3389 68.7422 39.48L68.8491 68.8292C68.8532 69.9703 68.2796 70.9517 67.283 71.5079C66.2865 72.0639 65.15 72.0371 64.181 71.4343L64.0553 36.9092Z" fill="#0077B6"/>
<path fill-rule="evenodd" clip-rule="evenodd" d="M64.0554 36.9093C65.0201 36.2995 66.1563 36.2642 67.1568 36.8129C68.1556 37.3609 68.7361 38.3356 68.7423 39.4744L68.7424 39.4801L68.8327 64.3029C68.8368 65.4441 68.2631 66.4254 67.2666 66.9816C66.2701 67.5376 65.1336 67.5108 64.1646 66.9081L64.0552 36.9094L64.0554 36.9093Z" fill="#0090C7"/>
<defs>
<linearGradient id="paint0_linear_111_292" x1="48.7942" y1="5.50218" x2="111.152" y2="84" gradientUnits="userSpaceOnUse">
<stop stop-color="#FBFBFC"/>
<stop offset="1" stop-color="#DBDDE8"/>
</linearGradient>
</defs>
</svg>
