<svg width="113" height="113" viewBox="0 0 113 113" fill="none" xmlns="http://www.w3.org/2000/svg">
<rect x="2.01397" y="38.4013" width="81" height="81" rx="28.5" transform="rotate(-26.6941 2.01397 38.4013)" fill="url(#paint0_linear_ig)" stroke="white" stroke-width="3"/>
<g opacity="0.25" filter="url(#filter0_f_ig)">
<rect x="30.1738" y="69.5736" width="57.2227" height="35.7642" rx="17.8821" transform="rotate(-26.6941 30.1738 69.5736)" fill="url(#paint1_linear_ig)"/>
</g>
<rect x="14.6616" y="42.5855" width="61.9913" height="61.9913" rx="30" transform="rotate(-26.6941 14.6616 42.5855)" fill="url(#paint2_linear_ig)"/>
<g clip-path="url(#clip0_ig)">
<path d="M55.8 47.2c3.7 0 4.1.01 5.6.08 1.4.06 2.1.3 2.6.5.7.26 1.1.58 1.6 1.08.5.5.82.94 1.08 1.6.2.5.44 1.2.5 2.6.07 1.5.08 1.9.08 5.6s-.01 4.1-.08 5.6c-.06 1.4-.3 2.1-.5 2.6-.26.7-.58 1.1-1.08 1.6-.5.5-.94.82-1.6 1.08-.5.2-1.2.44-2.6.5-1.5.07-1.9.08-5.6.08s-4.1-.01-5.6-.08c-1.4-.06-2.1-.3-2.6-.5-.7-.26-1.1-.58-1.6-1.08-.5-.5-.82-.94-1.08-1.6-.2-.5-.44-1.2-.5-2.6-.07-1.5-.08-1.9-.08-5.6s.01-4.1.08-5.6c.06-1.4.3-2.1.5-2.6.26-.7.58-1.1 1.08-1.6.5-.5.94-.82 1.6-1.08.5-.2 1.2-.44 2.6-.5 1.5-.07 1.9-.08 5.6-.08zm0-2.8c-3.8 0-4.2.02-5.7.08-1.5.07-2.5.3-3.4.65-.9.35-1.7.83-2.5 1.6-.77.77-1.25 1.57-1.6 2.5-.35.9-.58 1.9-.65 3.4-.06 1.5-.08 1.9-.08 5.7s.02 4.2.08 5.7c.07 1.5.3 2.5.65 3.4.35.9.83 1.7 1.6 2.5.77.77 1.57 1.25 2.5 1.6.9.35 1.9.58 3.4.65 1.5.06 1.9.08 5.7.08s4.2-.02 5.7-.08c1.5-.07 2.5-.3 3.4-.65.9-.35 1.7-.83 2.5-1.6.77-.77 1.25-1.57 1.6-2.5.35-.9.58-1.9.65-3.4.06-1.5.08-1.9.08-5.7s-.02-4.2-.08-5.7c-.07-1.5-.3-2.5-.65-3.4-.35-.9-.83-1.7-1.6-2.5-.77-.77-1.57-1.25-2.5-1.6-.9-.35-1.9-.58-3.4-.65-1.5-.06-1.9-.08-5.7-.08z" fill="white"/>
<path d="M55.8 52.4a6.2 6.2 0 100 12.4 6.2 6.2 0 000-12.4zm0 10.2a4 4 0 110-8 4 4 0 010 8z" fill="white"/>
<circle cx="62.2" cy="52" r="1.44" fill="white"/>
</g>
<defs>
<filter id="filter0_f_ig" x="30.8371" y="44.531" width="65.8634" height="56.3317" filterUnits="userSpaceOnUse" color-interpolation-filters="sRGB">
<feFlood flood-opacity="0" result="BackgroundImageFix"/>
<feBlend mode="normal" in="SourceGraphic" in2="BackgroundImageFix" result="shape"/>
<feGaussianBlur stdDeviation="2.73" result="effect1_foregroundBlur"/>
</filter>
<linearGradient id="paint0_linear_ig" x1="7.06113" y1="43.2372" x2="69.4192" y2="121.735" gradientUnits="userSpaceOnUse">
<stop stop-color="#FBFBFC"/>
<stop offset="1" stop-color="#DBDDE8"/>
</linearGradient>
<linearGradient id="paint1_linear_ig" x1="62.7399" y1="106.404" x2="51.076" y2="65.2933" gradientUnits="userSpaceOnUse">
<stop stop-color="#DD2A7B"/>
<stop offset="1" stop-color="#F58529"/>
</linearGradient>
<linearGradient id="paint2_linear_ig" x1="49.9416" y1="106.425" x2="20.9616" y2="42.5855" gradientUnits="userSpaceOnUse">
<stop stop-color="#8134AF"/>
<stop offset="0.5" stop-color="#DD2A7B"/>
<stop offset="1" stop-color="#F58529"/>
</linearGradient>
<clipPath id="clip0_ig">
<rect width="37.8" height="37.8" fill="white" transform="translate(36.9 39.7)"/>
</clipPath>
</defs>
</svg>
