<svg width="143" height="129" viewBox="0 0 143 129" fill="none" xmlns="http://www.w3.org/2000/svg">
<path d="M91.4178 74.6785C94.2093 75.4606 94.6145 77.3782 95.5925 81.5094C96.5706 85.6407 97.0683 87.5364 94.9236 89.487L91.4178 74.6785Z" fill="#0090C7"/>
<path d="M21.2102 106.938C18.4187 106.156 18.0136 104.238 17.0355 100.107C16.0575 95.9757 15.5597 94.0799 17.7044 92.1293L21.2102 106.938L21.2102 106.938Z" fill="#0090C7"/>
<path d="M86.3331 70.233C90.8475 71.5151 92.5177 76.2598 93.8577 81.9202C94.6983 85.4711 95.2617 88.7586 94.7096 91.4979C94.382 93.1252 93.6615 94.5585 92.3722 95.7397L92.3715 95.7398L86.333 70.2329L86.3331 70.233Z" fill="#0090C7"/>
<path d="M26.2953 111.383L26.2946 111.383C24.6125 110.905 23.326 109.947 22.3034 108.639C20.5818 106.438 19.6114 103.247 18.7707 99.6964C17.4307 94.0359 16.7963 89.0459 20.2567 85.8761L26.2952 111.383L26.2953 111.383Z" fill="#0090C7"/>
<path d="M59.3507 60.4945C80.1525 58.0874 87.5136 67.3967 91.1061 82.5715C95.2132 99.9204 91.4807 112.625 63.0719 119.35C34.6632 126.076 25.6316 116.393 21.5244 99.0443C17.9319 83.8695 20.3372 72.2481 40.0101 65.0732L59.3507 60.4945Z" fill="#E0F4FD"/>
<path d="M124.754 24.7285C128.313 39.7589 130.169 49.561 100.466 56.5928C100.374 56.6146 100.284 56.636 100.193 56.6563C98.6616 60.602 94.3686 65.4282 92.3518 66.9534C90.7817 68.1424 89.1103 67.4611 88.848 65.5079C88.5764 63.4901 87.9822 60.9392 87.3473 59.0051C70.4212 58.5256 67.0685 49.9775 64.4698 39.0003C60.9112 23.9687 59.0542 14.168 88.758 7.13593C118.462 0.103836 121.196 9.6969 124.754 24.7285Z" fill="#00AEEF"/>
<path d="M60.1988 107.215C54.8797 108.474 50.4586 109.118 46.6829 109.183C43.1222 109.244 40.2426 108.787 37.8793 107.786C35.6975 106.862 33.9933 105.486 32.6693 103.578C31.4926 101.883 30.6097 99.7455 29.9704 97.0447C29.331 94.344 29.1619 92.0381 29.4537 89.9951C29.7818 87.6963 30.6879 85.7018 32.2238 83.8975C33.8873 81.9432 36.2566 80.2437 39.4668 78.7021C42.8711 77.0673 47.1114 75.6606 52.4305 74.4013C57.7495 73.1421 62.1706 72.4984 65.9465 72.4333C69.5072 72.3719 72.3869 72.8287 74.7502 73.8298C76.932 74.7539 78.6363 76.1305 79.9603 78.0381C81.1371 79.7335 82.0199 81.8705 82.6593 84.5711C83.2986 87.2717 83.4676 89.5778 83.1759 91.621C82.8477 93.9198 81.9416 95.9144 80.4057 97.7188C78.7421 99.6731 76.3729 101.373 73.1625 102.914C69.7583 104.549 65.5178 105.956 60.1988 107.215Z" fill="#1E293B"/>
<path d="M59.3496 60.4944C59.3496 60.4944 59.4434 61.8487 59.4714 63.2363C59.5001 64.6644 58.5792 65.9376 57.2154 66.3622C55.8281 66.7942 53.7553 67.3851 50.927 68.0547C48.0987 68.7243 45.9809 69.1255 44.5472 69.3613C43.1378 69.5932 41.7438 68.868 41.1292 67.5787C40.532 66.3258 40.0088 65.0732 40.0088 65.0732C40.0088 65.0732 41.7549 61.1641 48.8954 59.4737C56.0359 57.7832 59.3493 60.4945 59.3493 60.4945L59.3496 60.4944Z" fill="#00AEEF"/>
<path d="M80.6771 39.2924C82.8366 38.7812 84.1728 36.6161 83.6616 34.4565C83.1503 32.297 80.9853 30.9608 78.8257 31.4721C76.6662 31.9833 75.33 34.1484 75.8412 36.3079C76.3525 38.4675 78.5176 39.8037 80.6771 39.2924Z" fill="white"/>
<path d="M95.5389 35.7745C97.6984 35.2632 99.0347 33.0981 98.5234 30.9386C98.0122 28.7791 95.8471 27.4429 93.6875 27.9541C91.528 28.4654 90.1918 30.6305 90.703 32.79C91.2143 34.9495 93.3794 36.2857 95.5389 35.7745Z" fill="white"/>
<path d="M110.398 32.2567C112.558 31.7455 113.894 29.5804 113.383 27.4208C112.872 25.2613 110.707 23.9251 108.547 24.4363C106.388 24.9476 105.051 27.1127 105.563 29.2722C106.074 31.4317 108.239 32.768 110.398 32.2567Z" fill="white"/>
<path d="M50.98 94.3261C51.4238 94.9477 50.724 95.7402 50.0511 95.3789C50.0367 95.3711 50.0222 95.3635 50.0077 95.3558C48.5556 94.5858 46.4089 93.9809 43.6301 94.6388C40.8512 95.2967 39.2036 96.7998 38.2508 98.1391C38.2413 98.1525 38.2318 98.1658 38.2224 98.1792C37.7829 98.8039 36.8021 98.4093 36.92 97.6546C37.3946 94.616 39.654 92.0188 42.8318 91.2665C46.0096 90.5142 49.1936 91.8228 50.9803 94.326L50.98 94.3261Z" fill="#00AEEF"/>
<path d="M62.6589 91.5616C62.541 92.3162 63.5217 92.7108 63.9613 92.0862C63.9707 92.0728 63.9802 92.0595 63.9897 92.046C64.9425 90.7068 66.5901 89.2036 69.3689 88.5458C72.1478 87.8879 74.2944 88.4928 75.7466 89.2627C75.7611 89.2705 75.7756 89.2781 75.79 89.2859C76.4629 89.6471 77.1626 88.8547 76.7189 88.233C74.9323 85.7297 71.7483 84.4212 68.5705 85.1735C65.3926 85.9258 63.1334 88.5231 62.6587 91.5616L62.6589 91.5616Z" fill="#00AEEF"/>
</svg>
