<svg width="113" height="113" viewBox="0 0 113 113" fill="none" xmlns="http://www.w3.org/2000/svg">
<rect x="2.01397" y="38.4013" width="81" height="81" rx="28.5" transform="rotate(-26.6941 2.01397 38.4013)" fill="url(#paint0_linear_msg)" stroke="white" stroke-width="3"/>
<g opacity="0.25" filter="url(#filter0_f_msg)">
<rect x="30.1738" y="69.5736" width="57.2227" height="35.7642" rx="17.8821" transform="rotate(-26.6941 30.1738 69.5736)" fill="url(#paint1_linear_msg)"/>
</g>
<rect x="14.6616" y="42.5855" width="61.9913" height="61.9913" rx="30" transform="rotate(-26.6941 14.6616 42.5855)" fill="url(#paint2_linear_msg)"/>
<g clip-path="url(#clip0_msg)" filter="url(#filter1_i_msg)">
<path d="M47.4 81.6L45.3 71.4C41.6 68.8 38.9 65.1 37.8 60.7C36.6 56.4 37.1 51.8 39.1 47.7C41.1 43.7 44.4 40.5 48.6 38.7C52.7 37 57.3 36.8 61.6 38.2C65.9 39.5 69.5 42.4 71.8 46.3C74.2 50.1 75 54.7 74.3 59.1C73.5 63.5 71.2 67.5 67.7 70.4C64.2 73.2 59.8 74.7 55.3 74.6L47.4 81.6ZM54 71L54.8 71C58.1 71.3 61.4 70.4 64.2 68.5C67 66.7 69.1 64 70.1 60.8C71.2 57.7 71.2 54.3 70.1 51.1C69.1 48 67 45.3 64.2 43.4C61.4 41.6 58.1 40.7 54.8 40.9C51.5 41.2 48.3 42.5 45.8 44.7C43.3 46.9 41.6 49.9 41 53.2C40.4 56.4 40.8 59.8 42.3 62.8C43.6 65.3 45.5 67.3 47.8 68.8L48.5 69.2L49.6 74.9L54 71Z" fill="white"/>
<path d="M56.5 50C52.9 50 50 52.5 50 55.6C50 57.6 51.1 59.4 52.8 60.4V62.8L55.4 61.5C55.8 61.6 56.1 61.6 56.5 61.6C60.1 61.6 63 59.1 63 55.9C63 52.7 60.1 50 56.5 50ZM57.4 58.2L55.5 56.1L51.7 58.2L55.9 53.7L57.9 55.8L61.6 53.7L57.4 58.2Z" fill="white"/>
</g>
<defs>
<filter id="filter0_f_msg" x="30.8371" y="44.531" width="65.8634" height="56.3317" filterUnits="userSpaceOnUse" color-interpolation-filters="sRGB">
<feFlood flood-opacity="0" result="BackgroundImageFix"/>
<feBlend mode="normal" in="SourceGraphic" in2="BackgroundImageFix" result="shape"/>
<feGaussianBlur stdDeviation="2.73" result="effect1_foregroundBlur"/>
</filter>
<filter id="filter1_i_msg" x="30.4512" y="30.8285" width="50.752" height="51.252" filterUnits="userSpaceOnUse" color-interpolation-filters="sRGB">
<feFlood flood-opacity="0" result="BackgroundImageFix"/>
<feBlend mode="normal" in="SourceGraphic" in2="BackgroundImageFix" result="shape"/>
<feColorMatrix in="SourceAlpha" type="matrix" values="0 0 0 0 0 0 0 0 0 0 0 0 0 0 0 0 0 0 127 0" result="hardAlpha"/>
<feOffset dy="0.5"/>
<feGaussianBlur stdDeviation="1.25"/>
<feComposite in2="hardAlpha" operator="arithmetic" k2="-1" k3="1"/>
<feColorMatrix type="matrix" values="0 0 0 0 0 0 0 0 0 0 0 0 0 0 0 0 0 0 0.1 0"/>
<feBlend mode="normal" in2="shape" result="effect1_innerShadow"/>
</filter>
<linearGradient id="paint0_linear_msg" x1="7.06113" y1="43.2372" x2="69.4192" y2="121.735" gradientUnits="userSpaceOnUse">
<stop stop-color="#FBFBFC"/>
<stop offset="1" stop-color="#DBDDE8"/>
</linearGradient>
<linearGradient id="paint1_linear_msg" x1="62.7399" y1="106.404" x2="51.076" y2="65.2933" gradientUnits="userSpaceOnUse">
<stop stop-color="#0078FF"/>
<stop offset="1" stop-color="#00C6FF"/>
</linearGradient>
<linearGradient id="paint2_linear_msg" x1="49.9416" y1="106.425" x2="20.9616" y2="42.5855" gradientUnits="userSpaceOnUse">
<stop stop-color="#0078FF"/>
<stop offset="1" stop-color="#00C6FF"/>
</linearGradient>
<clipPath id="clip0_msg">
<rect width="37.8" height="37.8" fill="white" transform="translate(30.4512 47.8092) rotate(-26.6941)"/>
</clipPath>
</defs>
</svg>
