<svg width="113" height="113" viewBox="0 0 113 113" fill="none" xmlns="http://www.w3.org/2000/svg">
<rect x="2.01397" y="38.4013" width="81" height="81" rx="28.5" transform="rotate(-26.6941 2.01397 38.4013)" fill="url(#paint0_linear_tt)" stroke="white" stroke-width="3"/>
<g opacity="0.25">
<ellipse cx="56" cy="75" rx="28" ry="16" fill="#111"/>
</g>
<circle cx="52" cy="56" r="30" fill="#010101"/>
<!-- Cyan layer (offset left-up) -->
<path transform="translate(38, 42) scale(1.2)" d="M16.6 0C16.6 0 16.7 2.9 19.8 3.2V5.9C19.8 5.9 18.2 6 16.6 4.9V11.6C16.6 17.8 9.4 19.3 7 14.8C5.4 11.8 6.7 6.7 12.2 6.5V9.3C11.9 9.4 11.5 9.5 11.3 9.6C9.9 10.1 9.1 11.1 9.4 12.6C9.8 15.4 14.8 16.2 14.4 11.5V0H16.6Z" fill="#25F4EE"/>
<!-- Magenta layer (offset right-down) -->
<path transform="translate(39.5, 43.5) scale(1.2)" d="M16.6 0C16.6 0 16.7 2.9 19.8 3.2V5.9C19.8 5.9 18.2 6 16.6 4.9V11.6C16.6 17.8 9.4 19.3 7 14.8C5.4 11.8 6.7 6.7 12.2 6.5V9.3C11.9 9.4 11.5 9.5 11.3 9.6C9.9 10.1 9.1 11.1 9.4 12.6C9.8 15.4 14.8 16.2 14.4 11.5V0H16.6Z" fill="#FE2C55"/>
<!-- White layer (center) -->
<path transform="translate(38.75, 42.75) scale(1.2)" d="M16.6 0C16.6 0 16.7 2.9 19.8 3.2V5.9C19.8 5.9 18.2 6 16.6 4.9V11.6C16.6 17.8 9.4 19.3 7 14.8C5.4 11.8 6.7 6.7 12.2 6.5V9.3C11.9 9.4 11.5 9.5 11.3 9.6C9.9 10.1 9.1 11.1 9.4 12.6C9.8 15.4 14.8 16.2 14.4 11.5V0H16.6Z" fill="white"/>
<defs>
<linearGradient id="paint0_linear_tt" x1="7.06113" y1="43.2372" x2="69.4192" y2="121.735" gradientUnits="userSpaceOnUse">
<stop stop-color="#FBFBFC"/>
<stop offset="1" stop-color="#DBDDE8"/>
</linearGradient>
</defs>
</svg>
