<svg width="113" height="113" viewBox="0 0 113 113" fill="none" xmlns="http://www.w3.org/2000/svg">
<rect x="2.01397" y="38.4013" width="81" height="81" rx="28.5" transform="rotate(-26.6941 2.01397 38.4013)" fill="url(#paint0_linear_106_160)" stroke="white" stroke-width="3"/>
<g opacity="0.25" filter="url(#filter0_f_106_160)">
<rect x="30.1738" y="69.5736" width="57.2227" height="35.7642" rx="17.8821" transform="rotate(-26.6941 30.1738 69.5736)" fill="url(#paint1_linear_106_160)"/>
</g>
<rect x="14.6616" y="42.5855" width="61.9913" height="61.9913" rx="30" transform="rotate(-26.6941 14.6616 42.5855)" fill="url(#paint2_linear_106_160)"/>
<g clip-path="url(#clip0_106_160)" filter="url(#filter1_i_106_160)">
<path d="M47.4319 81.5804L45.3268 71.3619C41.6113 68.8371 38.9336 65.0572 37.7851 60.7159C36.6365 56.3746 37.0941 51.763 39.074 47.7274C41.0538 43.6918 44.4231 40.5028 48.5635 38.7457C52.7039 36.9886 57.3377 36.7813 61.6146 38.1617C65.8915 39.542 69.5246 42.4176 71.8473 46.2607C74.1699 50.1037 75.0263 54.6565 74.2593 59.0836C73.4923 63.5106 71.1533 67.515 67.6715 70.3619C64.1898 73.2088 59.7988 74.7072 55.3044 74.5822L47.4319 81.5804ZM54.0492 70.9934L54.7789 71.0437C58.1034 71.2715 61.4113 70.3942 64.1873 68.5485C66.9633 66.7028 69.0514 63.9924 70.1262 60.8396C71.201 57.6868 71.2021 54.2688 70.1294 51.1181C69.0567 47.9675 66.9703 45.2613 64.1955 43.4211C61.4207 41.581 58.1133 40.7104 54.7887 40.9449C51.4642 41.1794 48.3091 42.5059 45.8153 44.7177C43.3216 46.9295 41.6291 49.9023 41.0017 53.1728C40.3743 56.4434 40.8472 59.828 42.3467 62.7992C43.5839 65.2658 45.4826 67.3402 47.8313 68.7913L48.4758 69.1944L49.6486 74.8989L54.0492 70.9934Z" fill="white"/>
<path fill-rule="evenodd" clip-rule="evenodd" d="M63.209 55.2049C62.7459 55.1052 62.2659 55.1125 61.8058 55.2261C61.3456 55.3397 60.9173 55.5568 60.5535 55.8606C60.0632 56.429 60.1509 57.6009 59.9946 58.2874C59.9687 58.4462 59.8857 58.5901 59.7612 58.6923C59.6366 58.7944 59.4792 58.8476 59.3183 58.8421C56.6043 59.0956 53.8854 58.4252 51.6033 56.9397C51.4329 56.8611 51.2997 56.7194 51.2318 56.5446C51.1639 56.3697 51.1666 56.1752 51.2394 56.0021C51.464 55.3364 51.517 54.625 51.3935 53.9339C51.0997 53.2507 50.6154 52.6666 49.9982 52.2513C49.3379 51.5659 48.4948 51.084 47.5684 50.8624C47.1572 50.8804 46.7598 51.0169 46.4242 51.2555C46.0886 51.494 45.8292 51.8244 45.6772 52.2067C45.4067 52.8575 45.2858 53.5604 45.3232 54.2636C45.3606 54.9669 45.5555 55.6526 45.8935 56.2702C46.0724 56.6225 46.294 56.9515 46.5532 57.2498C47.1878 57.9605 47.9231 58.5748 48.7356 59.073C49.3381 59.4647 49.9611 59.824 50.6021 60.1491C52.6942 61.2238 54.9758 61.8822 57.3203 62.0878C58.5003 62.1979 59.6893 62.1721 60.8638 62.0107C62.1417 61.9584 63.3821 61.5613 64.4532 60.8616C65.0511 60.4384 65.536 59.875 65.8651 59.221C66.1943 58.5671 66.3575 57.8425 66.3406 57.1111C66.3258 56.6716 66.1752 56.2477 65.9095 55.8974C65.3408 55.1939 64.0485 55.2596 63.209 55.2049Z" fill="white"/>
</g>
<defs>
<filter id="filter0_f_106_160" x="30.8371" y="44.531" width="65.8634" height="56.3317" filterUnits="userSpaceOnUse" color-interpolation-filters="sRGB">
<feFlood flood-opacity="0" result="BackgroundImageFix"/>
<feBlend mode="normal" in="SourceGraphic" in2="BackgroundImageFix" result="shape"/>
<feGaussianBlur stdDeviation="2.73" result="effect1_foregroundBlur_106_160"/>
</filter>
<filter id="filter1_i_106_160" x="30.4512" y="30.8285" width="50.752" height="51.252" filterUnits="userSpaceOnUse" color-interpolation-filters="sRGB">
<feFlood flood-opacity="0" result="BackgroundImageFix"/>
<feBlend mode="normal" in="SourceGraphic" in2="BackgroundImageFix" result="shape"/>
<feColorMatrix in="SourceAlpha" type="matrix" values="0 0 0 0 0 0 0 0 0 0 0 0 0 0 0 0 0 0 127 0" result="hardAlpha"/>
<feOffset dy="0.5"/>
<feGaussianBlur stdDeviation="1.25"/>
<feComposite in2="hardAlpha" operator="arithmetic" k2="-1" k3="1"/>
<feColorMatrix type="matrix" values="0 0 0 0 0 0 0 0 0 0 0 0 0 0 0 0 0 0 0.1 0"/>
<feBlend mode="normal" in2="shape" result="effect1_innerShadow_106_160"/>
</filter>
<linearGradient id="paint0_linear_106_160" x1="7.06113" y1="43.2372" x2="69.4192" y2="121.735" gradientUnits="userSpaceOnUse">
<stop stop-color="#FBFBFC"/>
<stop offset="1" stop-color="#DBDDE8"/>
</linearGradient>
<linearGradient id="paint1_linear_106_160" x1="62.7399" y1="106.404" x2="51.076" y2="65.2933" gradientUnits="userSpaceOnUse">
<stop stop-color="#00D95F"/>
<stop offset="1" stop-color="#07FF74"/>
</linearGradient>
<linearGradient id="paint2_linear_106_160" x1="49.9416" y1="106.425" x2="20.9616" y2="42.5855" gradientUnits="userSpaceOnUse">
<stop stop-color="#00D95F"/>
<stop offset="1" stop-color="#07FF74"/>
</linearGradient>
<clipPath id="clip0_106_160">
<rect width="37.8" height="37.8" fill="white" transform="translate(30.4512 47.8092) rotate(-26.6941)"/>
</clipPath>
</defs>
</svg>
